<svg xmlns="http://www.w3.org/2000/svg" version="1.1" xmlns:xlink="http://www.w3.org/1999/xlink" xmlns:svgjs="http://svgjs.com/svgjs" width="1442" height="566" preserveAspectRatio="none" viewBox="0 0 1442 566"><g mask="url(&quot;#SvgjsMask1082&quot;)" fill="none"><rect width="1442" height="566" x="0" y="0" fill="rgba(67, 134, 185, 1)"></rect><path d="M0,458.813C87.757,455.347,173.115,431.815,247.304,384.812C321.815,337.605,383.812,272.25,420.836,192.189C457.967,111.896,455.947,22.964,455.549,-65.498C455.091,-167.332,469.485,-274.434,418.34,-362.494C363.077,-457.645,267.621,-522.894,165.745,-564.475C56.719,-608.974,-63.175,-632.431,-177.893,-605.848C-296.042,-578.47,-399.054,-506.256,-479.013,-415.067C-559.274,-323.534,-628.831,-212.277,-629.736,-90.542C-630.606,26.485,-553.719,127.113,-483.743,220.918C-424.85,299.867,-348.571,361.391,-260.186,404.857C-179.06,444.753,-90.335,462.381,0,458.813" fill="#2d5a7c"></path><path d="M1442 1078.316C1541.029 1065.5520000000001 1640.206 1058.7269999999999 1727.459 1010.183 1818.6019999999999 959.4739999999999 1900.336 889.87 1947.717 796.953 1996.23 701.816 2021.598 589.855 1994.464 486.568 1968.364 387.216 1864.5720000000001 335.216 1804.522 251.873 1736.491 157.454 1724.4569999999999 12.991999999999962 1618.525-35.190000000000055 1512.521-83.40499999999997 1388.845-27.371999999999957 1279.6680000000001 13.149000000000001 1176.421 51.46900000000005 1069.753 98.98700000000002 1009.188 190.96699999999998 951.252 278.954 984.672 394.174 961.159 496.866 934.7429999999999 612.237 834.876 715.508 862.748 830.5360000000001 891.212 948.0070000000001 993.8489999999999 1042.878 1104.979 1090.415 1210.47 1135.54 1328.204 1092.983 1442 1078.316" fill="#7fadd1"></path></g><defs><mask id="SvgjsMask1082"><rect width="1442" height="566" fill="#ffffff"></rect></mask></defs></svg>